<svg width="199" height="156" viewBox="0 0 199 156" fill="none" xmlns="http://www.w3.org/2000/svg">
<path d="M175.888 38.6061L189.598 57.5152L189.598 96.5151L175.888 116.606L150.817 133.939L114.778 145.758L83.0472 145.758L47.3996 133.939L23.1122 115.818L9.40156 96.1212L9.40155 57.1212L23.5039 38.6061L48.5748 20.0909L48.9665 19.697L81.4803 9.84849L115.953 9.84849L148.858 20.0909L149.25 20.0909L175.888 38.6061ZM154.343 142.606L181.764 123.697L183.331 122.121L197.825 100.455L199 97.303L199 55.9394L197.825 52.3939L183.331 32.303L181.764 31.1212L154.343 12.2121L152.776 11.4242L117.52 0.393962L115.953 1.01903e-05L81.872 1.168e-05L80.3051 0.393963L45.0492 11.4243L43.0905 12.2121L17.2362 31.1212L16.061 32.303L1.17519 52.394L-4.37379e-06 55.9394L-2.56573e-06 97.303L1.17519 100.848L16.061 122.515L17.2362 123.697L43.0905 142.606L44.6575 143.394L82.6555 156L115.561 156L153.167 143.394L154.343 142.606Z" fill="#2300FA"/>
</svg>
